<?xml version="1.0" encoding="UTF-8"?><svg id="Calque_2" xmlns="http://www.w3.org/2000/svg" xmlns:xlink="http://www.w3.org/1999/xlink" viewBox="0 0 283.67 231.26"><defs><style>.cls-1{fill:#fff;}.cls-2{fill:#29294c;}.cls-3{fill:#afabdd;}.cls-4{fill:url(#Dégradé_sans_nom_10-2);}.cls-5{fill:#5757aa;}.cls-6{fill:url(#Dégradé_sans_nom_10);}</style><radialGradient id="Dégradé_sans_nom_10" cx="95.42" cy="100.27" fx="95.42" fy="100.27" r="45" gradientUnits="userSpaceOnUse"><stop offset="0" stop-color="#1b1464"/><stop offset="1" stop-color="#fff"/></radialGradient><radialGradient id="Dégradé_sans_nom_10-2" cx="211.42" cy="87.27" fx="211.42" fy="87.27" xlink:href="#Dégradé_sans_nom_10"/></defs><g id="visage"><path d="M32.6,10.25H251.08c13.98,0,25.33,11.35,25.33,25.33V195.52c0,14.06-11.42,25.48-25.48,25.48H32.46c-13.9,0-25.18-11.28-25.18-25.18V35.58c0-13.98,11.35-25.33,25.33-25.33Z" transform="translate(-10.58 14.35) rotate(-5.59)"/><rect class="cls-3" x="29.11" y="27.56" width="248" height="192.37" rx="25.33" ry="25.33" transform="translate(-11.32 15.49) rotate(-5.59)"/><g><circle class="cls-6" cx="95.42" cy="100.27" r="45"/><circle class="cls-3" cx="95.42" cy="100.27" r="23"/><circle class="cls-1" cx="115.42" cy="93.27" r="12.5"/><circle class="cls-4" cx="211.42" cy="87.27" r="45"/><circle class="cls-3" cx="211.42" cy="87.27" r="23"/><circle class="cls-1" cx="231.42" cy="80.27" r="12.5"/></g></g><g id="bouche1"><g><ellipse class="cls-5" cx="164.92" cy="179.77" rx="42.5" ry="21.5" transform="translate(-33.38 37.67) rotate(-11.84)"/><ellipse class="cls-2" cx="165.45" cy="180.68" rx="28.66" ry="14.5" transform="translate(-33.56 37.8) rotate(-11.84)"/><path class="cls-1" d="M152.95,195.9s6.79-4.32,9.93-3.95,7.7-.97,8.81-1.85c1.75-1.39,10.2-.09,10.2-.09,0,0-11.83,7.24-28.94,5.89Z"/></g></g></svg>