<?xml version="1.0" encoding="UTF-8"?><svg id="Calque_2" xmlns="http://www.w3.org/2000/svg" xmlns:xlink="http://www.w3.org/1999/xlink" viewBox="0 0 283.67 231.26"><defs><style>.cls-1{fill:#fff;}.cls-2{fill:#29294c;}.cls-3{fill:#afabdd;}.cls-4{fill:url(#Dégradé_sans_nom_10-2);}.cls-5{fill:#5757aa;}.cls-6{fill:url(#Dégradé_sans_nom_10);}</style><radialGradient id="Dégradé_sans_nom_10" cx="95.42" cy="100.27" fx="95.42" fy="100.27" r="45" gradientUnits="userSpaceOnUse"><stop offset="0" stop-color="#1b1464"/><stop offset="1" stop-color="#fff"/></radialGradient><radialGradient id="Dégradé_sans_nom_10-2" cx="211.42" cy="87.27" fx="211.42" fy="87.27" xlink:href="#Dégradé_sans_nom_10"/></defs><g id="visage"><path d="M32.6,10.25H251.08c13.98,0,25.33,11.35,25.33,25.33V195.52c0,14.06-11.42,25.48-25.48,25.48H32.46c-13.9,0-25.18-11.28-25.18-25.18V35.58c0-13.98,11.35-25.33,25.33-25.33Z" transform="translate(-10.58 14.35) rotate(-5.59)"/><rect class="cls-3" x="29.11" y="27.56" width="248" height="192.37" rx="25.33" ry="25.33" transform="translate(-11.32 15.49) rotate(-5.59)"/><g><circle class="cls-6" cx="95.42" cy="100.27" r="45"/><circle class="cls-3" cx="95.42" cy="100.27" r="23"/><circle class="cls-1" cx="115.42" cy="93.27" r="12.5"/><circle class="cls-4" cx="211.42" cy="87.27" r="45"/><circle class="cls-3" cx="211.42" cy="87.27" r="23"/><circle class="cls-1" cx="231.42" cy="80.27" r="12.5"/></g></g><g id="bouche3"><g><path class="cls-5" d="M88.33,175.5s60.48,2.08,134.6-29.96c0,0-4.5,5.51-6.59,13.58s-10.32,41.08-50.69,50.14c-40.36,9.06-63.35-20.59-63.35-20.59,0,0-6.31-7.87-13.97-13.17Z"/><path class="cls-2" d="M98.42,178.27s88-2,115-24c0,0-6,37-47,50s-68-26-68-26Z"/><path class="cls-1" d="M132.6,204.1s8.83-7.83,19.83-6.83,14-2,14-2c0,0,6.4-2.79,15.7,2.11,0,0-22.36,15.55-49.53,6.72Z"/></g></g></svg>