<?xml version="1.0" encoding="utf-8"?>
<!-- Generator: Adobe Illustrator 26.0.1, SVG Export Plug-In . SVG Version: 6.00 Build 0)  -->
<svg version="1.1" id="Layer_1" xmlns="http://www.w3.org/2000/svg" xmlns:xlink="http://www.w3.org/1999/xlink" x="0px" y="0px"
	 viewBox="0 0 182 205.8" style="enable-background:new 0 0 182 205.8;" xml:space="preserve">
<style type="text/css">
	.st0{fill-rule:evenodd;clip-rule:evenodd;fill:#E44D26;}
	.st1{fill-rule:evenodd;clip-rule:evenodd;fill:#F16529;}
	.st2{fill-rule:evenodd;clip-rule:evenodd;fill:#EBEBEB;}
	.st3{fill-rule:evenodd;clip-rule:evenodd;fill:#FFFFFF;}
</style>
<desc>Created with Sketch.</desc>
<g id="Page-1">
	<g id="html">
		<polygon id="Path" class="st0" points="181.7,0 165.2,184.6 90.9,205.2 16.8,184.7 0.3,0 		"/>
		<polygon id="Path_00000062188740728370722730000010453693399940132993_" class="st1" points="91,189.5 151,172.9 165.1,15.1 
			91,15.1 		"/>
		<polygon id="Path_00000175284885567134964330000016377791295632795523_" class="st2" points="58.9,60.4 91,60.4 91,37.7 
			34.1,37.7 34.6,43.8 40.2,106.2 91,106.2 91,83.6 61,83.6 		"/>
		<polygon id="Path_00000000208097300716240790000003599483885516496037_" class="st2" points="64,117.6 41.2,117.6 44.4,153.1 
			90.9,166 91,166 91,142.4 90.9,142.4 65.6,135.6 		"/>
		<polygon id="Path_00000027602000192253009630000015223631966359442110_" class="st3" points="90.9,106.2 118.9,106.2 116.2,135.6 
			90.9,142.4 90.9,166 137.5,153.1 137.8,149.3 143.1,89.7 143.7,83.6 90.9,83.6 		"/>
		<polygon id="Path_00000157306488635717198080000006311707954574033803_" class="st3" points="90.9,60.3 90.9,60.4 145.8,60.4 
			146.2,55.3 147.3,43.8 147.8,37.7 90.9,37.7 		"/>
	</g>
</g>
</svg>
