<?xml version="1.0" encoding="UTF-8"?><svg id="Calque_1" xmlns="http://www.w3.org/2000/svg" viewBox="0 0 950.96 983.21"><defs><style>.cls-1{fill:#ff2d20;}</style></defs><path class="cls-1" d="M945.27,226.49c.35,1.29,.53,2.62,.53,3.96v207.85c0,5.43-2.9,10.45-7.62,13.15l-174.46,100.44v199.08c0,5.42-2.88,10.42-7.58,13.15l-364.16,209.64c-.83,.47-1.74,.78-2.65,1.1-.34,.11-.66,.32-1.02,.42-2.55,.67-5.22,.67-7.77,0-.42-.11-.8-.34-1.19-.49-.83-.3-1.7-.57-2.5-1.02L12.77,764.13c-4.71-2.7-7.61-7.72-7.62-13.15V127.42c0-1.36,.19-2.69,.53-3.98,.11-.44,.38-.83,.53-1.27,.28-.8,.55-1.61,.97-2.35,.28-.49,.7-.89,1.04-1.35,.44-.61,.83-1.23,1.35-1.76,.44-.44,1-.76,1.5-1.14,.55-.45,1.04-.95,1.67-1.31h.02L194.8,9.45c4.69-2.7,10.46-2.7,15.16,0l182.05,104.82h.04c.61,.38,1.12,.85,1.67,1.29,.49,.38,1.04,.72,1.48,1.14,.53,.55,.91,1.17,1.36,1.78,.32,.45,.76,.85,1.02,1.35,.44,.76,.68,1.55,.99,2.35,.15,.44,.42,.83,.53,1.29,.35,1.29,.53,2.62,.53,3.96v389.47l151.7-87.35V230.43c0-1.33,.19-2.67,.53-3.94,.13-.45,.38-.85,.53-1.29,.3-.8,.57-1.61,.99-2.35,.28-.49,.7-.89,1.02-1.35,.45-.61,.83-1.23,1.36-1.76,.44-.44,.99-.76,1.48-1.14,.57-.45,1.06-.95,1.67-1.31h.02l182.07-104.82c4.69-2.7,10.47-2.7,15.16,0l182.05,104.82c.64,.38,1.14,.85,1.7,1.29,.47,.38,1.02,.72,1.46,1.14,.53,.55,.91,1.17,1.36,1.78,.34,.45,.76,.85,1.02,1.35,.44,.74,.68,1.55,.99,2.35,.17,.44,.42,.83,.53,1.29h0Zm-29.82,203.04v-172.85l-63.71,36.68-88.01,50.68v172.85l151.74-87.35h-.02Zm-182.05,312.67v-172.96l-86.57,49.44-247.22,141.1v174.59l333.79-192.17ZM35.5,153.65V742.21l333.76,192.15v-174.55l-174.36-98.68-.06-.04-.08-.04c-.59-.34-1.08-.83-1.63-1.25-.47-.38-1.02-.68-1.44-1.1l-.04-.06c-.49-.47-.83-1.06-1.25-1.59-.38-.51-.83-.95-1.14-1.48l-.02-.06c-.34-.57-.55-1.25-.8-1.89-.25-.57-.57-1.1-.72-1.7v-.02c-.19-.72-.23-1.48-.3-2.22-.08-.57-.23-1.14-.23-1.7V241l-88-50.69-63.71-36.64v-.02ZM202.4,40.1L50.71,127.42l151.65,87.31,151.67-87.33L202.36,40.1h.04Zm78.88,544.91l88-50.66V153.65l-63.71,36.68-88.01,50.68v380.7l63.73-36.69ZM748.58,143.14l-151.67,87.31,151.67,87.31,151.65-87.33-151.65-87.29Zm-15.17,200.9l-88.01-50.68-63.71-36.68v172.85l88,50.66,63.73,36.69v-172.85Zm-348.99,389.51l222.46-127,111.2-63.46-151.55-87.26-174.49,100.46-159.04,91.56,151.42,85.7Z"/></svg>